<svg width="142" height="17" viewBox="0 0 142 17" fill="none" xmlns="http://www.w3.org/2000/svg">
<path d="M6.97266 1.08594C8.44401 1.08594 9.72656 1.48307 10.8203 2.27734C12.3438 3.39714 13.1055 5.03125 13.1055 7.17969C13.1055 7.98698 12.9688 8.7487 12.6953 9.46484C12.1354 10.9232 11.1198 11.9779 9.64844 12.6289C9.7526 12.7591 9.85677 12.8763 9.96094 12.9805C10.7943 13.9049 11.5299 14.3672 12.168 14.3672C12.2461 14.3672 12.3307 14.3607 12.4219 14.3477C12.8646 14.3086 13.3789 13.9961 13.9648 13.4102L14.4336 13.6836C13.7695 15.2852 12.8841 16.099 11.7773 16.125C11.0742 16.112 10.3841 15.7474 9.70703 15.0312C9.47266 14.7708 8.9974 14.1133 8.28125 13.0586C7.86458 13.1497 7.40885 13.1953 6.91406 13.1953C5.39062 13.1953 4.0625 12.7591 2.92969 11.8867C1.45833 10.7409 0.722656 9.14583 0.722656 7.10156C0.722656 5.31771 1.34115 3.85938 2.57812 2.72656C3.77604 1.63281 5.24089 1.08594 6.97266 1.08594ZM6.64062 10.5391C7.34375 10.5391 8.125 10.9948 8.98438 11.9062C9.72656 11.1641 10.0977 9.55599 10.0977 7.08203C10.0977 5.83203 9.98698 4.8099 9.76562 4.01562C9.32292 2.4401 8.3724 1.65234 6.91406 1.65234C6.40625 1.65234 5.96354 1.74349 5.58594 1.92578C4.34896 2.52474 3.73047 4.27604 3.73047 7.17969C3.73047 9.44531 4.0625 10.9753 4.72656 11.7695C5.3125 10.9622 5.95052 10.5521 6.64062 10.5391ZM6.97266 12.6289C7.32422 12.6289 7.63672 12.5898 7.91016 12.5117C7.40234 11.8216 6.91406 11.4701 6.44531 11.457C6.01562 11.4701 5.58594 11.7044 5.15625 12.1602C5.59896 12.4596 6.20443 12.6159 6.97266 12.6289ZM23.9648 12.4922C24.056 12.4922 24.1341 12.4987 24.1992 12.5117C24.3555 12.5508 24.4336 12.7135 24.4336 13H20.957L20.8594 11.3984C20.8203 11.4766 20.7812 11.5547 20.7422 11.6328C20.1302 12.6745 19.2383 13.1953 18.0664 13.1953C16.2305 13.1823 15.2995 12.1211 15.2734 10.0117V5.10938H14.1406V4.60156H17.7539V10.3438C17.7539 10.526 17.7669 10.7018 17.793 10.8711C17.9232 11.7435 18.3594 12.1797 19.1016 12.1797C19.2969 12.1797 19.4922 12.1341 19.6875 12.043C20.3385 11.7174 20.7096 11.0469 20.8008 10.0312L20.8203 5.10938H19.8633V4.60156H23.3008V12.4922H23.9648ZM30.2734 12.4922C30.3516 12.4922 30.4232 12.4987 30.4883 12.5117C30.6576 12.5378 30.7422 12.7005 30.7422 13H25.2148V12.4922C25.3841 12.4922 25.5339 12.4792 25.6641 12.4531C26.1198 12.375 26.3477 12.0495 26.3477 11.4766V5.10938H25.2148V4.60156H28.6328L28.7695 6.41797C28.9128 6.05339 29.1211 5.71484 29.3945 5.40234C30.0065 4.76432 30.7161 4.44531 31.5234 4.44531C31.6927 4.44531 31.8555 4.46484 32.0117 4.50391C32.6497 4.67318 32.9688 5.08333 32.9688 5.73438C32.9688 5.91667 32.9297 6.09245 32.8516 6.26172C32.6302 6.75651 32.2591 7.00391 31.7383 7.00391C31.582 7.00391 31.4388 6.98438 31.3086 6.94531C31.0352 6.84115 30.7812 6.58073 30.5469 6.16406C30.3776 5.86458 30.2214 5.71484 30.0781 5.71484C30 5.71484 29.9154 5.73438 29.8242 5.77344C29.2513 6.07292 28.9193 6.90625 28.8281 8.27344V12.4922H30.2734ZM40.6445 13.1953C39.6029 13.1302 38.9453 12.5378 38.6719 11.418C38.6068 11.6003 38.5221 11.776 38.418 11.9453C37.8971 12.7786 37.0833 13.1953 35.9766 13.1953C35.612 13.1953 35.2799 13.1497 34.9805 13.0586C33.9648 12.7331 33.457 11.9909 33.457 10.832C33.4701 9.1263 35.1497 8.24089 38.4961 8.17578V6.90625C38.4961 6.52865 38.4701 6.20312 38.418 5.92969C38.2878 5.1875 37.9167 4.81641 37.3047 4.81641C37.1224 4.81641 36.9596 4.84896 36.8164 4.91406C36.5951 5.04427 36.4128 5.36979 36.2695 5.89062C36.2174 6.07292 36.1784 6.20312 36.1523 6.28125C35.957 6.82812 35.5794 7.10156 35.0195 7.10156C34.8893 7.10156 34.7656 7.08203 34.6484 7.04297C34.1667 6.91276 33.9258 6.59375 33.9258 6.08594C33.9258 5.86458 33.9844 5.65625 34.1016 5.46094C34.5573 4.69271 35.6706 4.30859 37.4414 4.30859C37.8971 4.30859 38.3203 4.35417 38.7109 4.44531C40.2214 4.82292 40.9766 5.82552 40.9766 7.45312V11.5352C40.9766 12.1602 41.1198 12.4857 41.4062 12.5117C41.7839 12.4987 42.0117 12.043 42.0898 11.1445L42.5977 11.1641C42.5586 11.5677 42.5 11.8997 42.4219 12.1602C42.1875 12.8503 41.5951 13.1953 40.6445 13.1953ZM36.9922 12.3555C37.0833 12.3555 37.1875 12.3359 37.3047 12.2969C37.8516 12.0885 38.2487 11.5286 38.4961 10.6172V8.72266C37.9102 8.7487 37.4284 8.82031 37.0508 8.9375C36.3477 9.19792 35.9961 9.75781 35.9961 10.6172C36.0091 11.75 36.3411 12.3294 36.9922 12.3555ZM47.1875 12.4922C47.2656 12.4922 47.3372 12.4987 47.4023 12.5117C47.5716 12.5378 47.6562 12.7005 47.6562 13H43.0859V12.4922C43.1901 12.4922 43.2878 12.4857 43.3789 12.4727C43.9388 12.4076 44.2188 12.0755 44.2188 11.4766V5.10938H43.0859V4.60156H46.5625L46.6602 6.125C46.7773 5.89062 46.9336 5.66276 47.1289 5.44141C47.793 4.6862 48.6003 4.30859 49.5508 4.30859C49.8893 4.30859 50.2148 4.36068 50.5273 4.46484C51.6732 4.86849 52.2461 5.8776 52.2461 7.49219V12.4922H52.8906C52.9688 12.4922 53.0469 12.4987 53.125 12.5117C53.2943 12.5378 53.3789 12.7005 53.3789 13H48.8672V12.4922C49.0495 12.4922 49.2057 12.4727 49.3359 12.4336C49.6224 12.3424 49.7656 12.0234 49.7656 11.4766V7.16016C49.7656 6.97786 49.7526 6.80208 49.7266 6.63281C49.5964 5.76042 49.1602 5.32422 48.418 5.32422C48.2227 5.32422 48.0339 5.36979 47.8516 5.46094C47.1875 5.78646 46.8099 6.46354 46.7188 7.49219L46.6992 12.4922H47.1875ZM58.4961 12.4922C58.5742 12.4922 58.6458 12.4987 58.7109 12.5117C58.8802 12.5378 58.9648 12.7005 58.9648 13H54.1602V12.4922C54.3294 12.4922 54.4792 12.4792 54.6094 12.4531C55.0651 12.375 55.293 12.0495 55.293 11.4766V5.10938H54.1602V4.60156H57.7734V12.4922H58.4961ZM57.9492 2.04297C57.9492 2.29036 57.8841 2.52474 57.7539 2.74609C57.4805 3.22786 57.0573 3.46875 56.4844 3.46875C56.25 3.46875 56.0221 3.41016 55.8008 3.29297C55.293 3.03255 55.0391 2.61589 55.0391 2.04297C55.0391 1.79557 55.0977 1.5612 55.2148 1.33984C55.5013 0.832031 55.9245 0.578125 56.4844 0.578125C56.7318 0.578125 56.9661 0.643229 57.1875 0.773438C57.6953 1.04688 57.9492 1.47005 57.9492 2.04297ZM59.9414 8.78125C59.9414 7.50521 60.3255 6.46354 61.0938 5.65625C61.9531 4.75781 63.0729 4.30859 64.4531 4.30859C65.4688 4.30859 66.3151 4.51042 66.9922 4.91406C67.6823 5.34375 68.0273 5.84505 68.0273 6.41797C68.0273 6.52214 68.0143 6.6263 67.9883 6.73047C67.832 7.22526 67.4219 7.47266 66.7578 7.47266C66.4453 7.47266 66.1979 7.40755 66.0156 7.27734C65.7812 7.10807 65.625 6.72396 65.5469 6.125C65.5078 5.8776 65.4753 5.70182 65.4492 5.59766C65.319 5.0638 64.9674 4.79688 64.3945 4.79688C64.1081 4.79688 63.8607 4.85547 63.6523 4.97266C62.9622 5.38932 62.6172 6.69141 62.6172 8.87891C62.6172 9.97266 62.7279 10.819 62.9492 11.418C63.2487 12.2253 63.8477 12.6289 64.7461 12.6289C65.0846 12.6289 65.4232 12.5768 65.7617 12.4727C66.6341 12.1992 67.2526 11.6719 67.6172 10.8906L68.125 11.0273C67.9948 11.3659 67.806 11.6784 67.5586 11.9648C66.8294 12.7852 65.7878 13.1953 64.4336 13.1953C63.5612 13.1953 62.7865 13.0326 62.1094 12.707C60.6641 11.9909 59.9414 10.6823 59.9414 8.78125ZM73.4961 12.4922C73.5742 12.4922 73.6458 12.4987 73.7109 12.5117C73.8802 12.5378 73.9648 12.7005 73.9648 13H68.5156V12.4922C68.8802 12.4922 69.1732 12.4661 69.3945 12.4141C69.8242 12.2969 70.0391 11.9714 70.0391 11.4375V0.8125H68.5156V0.304688H72.5195V12.4922H73.4961ZM77.5781 8.76172C77.5781 9.98568 77.6562 10.8776 77.8125 11.4375C78.0469 12.2708 78.5677 12.6875 79.375 12.6875C79.8307 12.6875 80.2018 12.5508 80.4883 12.2773C80.9831 11.7826 81.2305 10.5846 81.2305 8.68359C81.2305 7.4987 81.1523 6.63281 80.9961 6.08594C80.7617 5.23958 80.2279 4.81641 79.3945 4.81641C78.8997 4.81641 78.5156 4.96615 78.2422 5.26562C77.7995 5.77344 77.5781 6.9388 77.5781 8.76172ZM79.4922 4.30859C80.612 4.30859 81.569 4.61458 82.3633 5.22656C83.3919 6.04688 83.9062 7.1862 83.9062 8.64453C83.9062 9.73828 83.5807 10.7018 82.9297 11.5352C82.0573 12.6419 80.8529 13.1953 79.3164 13.1953C78.1966 13.1953 77.2331 12.8568 76.4258 12.1797C75.4102 11.3203 74.9023 10.1549 74.9023 8.68359C74.9023 7.64193 75.2018 6.73047 75.8008 5.94922C76.6602 4.85547 77.8906 4.30859 79.4922 4.30859ZM89.043 5.08984H87.7148L89.8633 10.9883L92.168 5.08984H90.5664V4.60156H93.7305C93.7305 4.82292 93.7174 4.97266 93.6914 5.05078C93.6654 5.07682 93.5482 5.08984 93.3398 5.08984C93.2617 5.08984 93.1836 5.09635 93.1055 5.10938C92.8971 5.14844 92.7279 5.33073 92.5977 5.65625L89.7656 13.0977H89.0625C88.7891 13.0977 88.5807 13.0521 88.4375 12.9609C88.2682 12.8438 88.0404 12.4141 87.7539 11.6719L85.293 5.08984H84.5312V4.60156H89.043V5.08984ZM98.7305 4.81641C97.6888 4.85547 97.1224 5.95573 97.0312 8.11719L98.2812 8.17578C98.8021 8.20182 99.1927 8.16927 99.4531 8.07812C99.8177 7.9349 100 7.55729 100 6.94531C99.987 5.55208 99.5638 4.84245 98.7305 4.81641ZM102.383 10.9883C102.305 11.1966 102.201 11.3984 102.07 11.5938C101.406 12.6615 100.312 13.1953 98.7891 13.1953C97.9297 13.1953 97.1615 13.0195 96.4844 12.668C95.0651 11.9258 94.3555 10.6107 94.3555 8.72266C94.3555 7.5638 94.668 6.59375 95.293 5.8125C96.1133 4.8099 97.2591 4.30859 98.7305 4.30859C99.5378 4.30859 100.26 4.44531 100.898 4.71875C102.031 5.22656 102.598 6.03385 102.598 7.14062C102.598 7.36198 102.559 7.5638 102.48 7.74609C102.142 8.47526 100.924 8.80729 98.8281 8.74219L97.0312 8.68359C97.0443 9.4388 97.1094 10.0898 97.2266 10.6367C97.526 11.9648 98.1966 12.6289 99.2383 12.6289C99.5638 12.6289 99.8828 12.5703 100.195 12.4531C100.977 12.1667 101.549 11.6263 101.914 10.832L102.383 10.9883ZM106.309 11.7305C106.309 11.9648 106.257 12.1862 106.152 12.3945C105.892 12.8633 105.482 13.0977 104.922 13.0977C104.701 13.0977 104.492 13.0456 104.297 12.9414C103.802 12.694 103.555 12.2904 103.555 11.7305C103.555 11.5091 103.607 11.2943 103.711 11.0859C103.971 10.5911 104.375 10.3438 104.922 10.3438C105.143 10.3438 105.358 10.3958 105.566 10.5C106.061 10.7734 106.309 11.1836 106.309 11.7305ZM107.383 8.78125C107.383 7.50521 107.767 6.46354 108.535 5.65625C109.395 4.75781 110.514 4.30859 111.895 4.30859C112.91 4.30859 113.757 4.51042 114.434 4.91406C115.124 5.34375 115.469 5.84505 115.469 6.41797C115.469 6.52214 115.456 6.6263 115.43 6.73047C115.273 7.22526 114.863 7.47266 114.199 7.47266C113.887 7.47266 113.639 7.40755 113.457 7.27734C113.223 7.10807 113.066 6.72396 112.988 6.125C112.949 5.8776 112.917 5.70182 112.891 5.59766C112.76 5.0638 112.409 4.79688 111.836 4.79688C111.549 4.79688 111.302 4.85547 111.094 4.97266C110.404 5.38932 110.059 6.69141 110.059 8.87891C110.059 9.97266 110.169 10.819 110.391 11.418C110.69 12.2253 111.289 12.6289 112.188 12.6289C112.526 12.6289 112.865 12.5768 113.203 12.4727C114.076 12.1992 114.694 11.6719 115.059 10.8906L115.566 11.0273C115.436 11.3659 115.247 11.6784 115 11.9648C114.271 12.7852 113.229 13.1953 111.875 13.1953C111.003 13.1953 110.228 13.0326 109.551 12.707C108.105 11.9909 107.383 10.6823 107.383 8.78125ZM118.926 8.76172C118.926 9.98568 119.004 10.8776 119.16 11.4375C119.395 12.2708 119.915 12.6875 120.723 12.6875C121.178 12.6875 121.549 12.5508 121.836 12.2773C122.331 11.7826 122.578 10.5846 122.578 8.68359C122.578 7.4987 122.5 6.63281 122.344 6.08594C122.109 5.23958 121.576 4.81641 120.742 4.81641C120.247 4.81641 119.863 4.96615 119.59 5.26562C119.147 5.77344 118.926 6.9388 118.926 8.76172ZM120.84 4.30859C121.96 4.30859 122.917 4.61458 123.711 5.22656C124.74 6.04688 125.254 7.1862 125.254 8.64453C125.254 9.73828 124.928 10.7018 124.277 11.5352C123.405 12.6419 122.201 13.1953 120.664 13.1953C119.544 13.1953 118.581 12.8568 117.773 12.1797C116.758 11.3203 116.25 10.1549 116.25 8.68359C116.25 7.64193 116.549 6.73047 117.148 5.94922C118.008 4.85547 119.238 4.30859 120.84 4.30859ZM130.195 12.4922C130.273 12.4922 130.345 12.4987 130.41 12.5117C130.579 12.5378 130.664 12.7005 130.664 13H126.23V12.4922C126.335 12.4922 126.432 12.4857 126.523 12.4727C127.083 12.4076 127.363 12.0755 127.363 11.4766V5.10938H126.23V4.60156H129.707L129.805 6.02734C130.378 4.89453 131.289 4.32161 132.539 4.30859C132.747 4.30859 132.956 4.33464 133.164 4.38672C133.958 4.62109 134.512 5.20052 134.824 6.125C135.449 4.92708 136.393 4.32161 137.656 4.30859C138.112 4.30859 138.535 4.43229 138.926 4.67969C139.772 5.21354 140.195 6.11849 140.195 7.39453V12.4922H140.84C140.918 12.4922 140.996 12.4987 141.074 12.5117C141.243 12.5378 141.328 12.7005 141.328 13H136.875V12.4922C137.083 12.4922 137.246 12.4727 137.363 12.4336C137.611 12.3294 137.734 12.0104 137.734 11.4766V7.16016C137.734 6.83464 137.695 6.53516 137.617 6.26172C137.409 5.59766 137.025 5.26562 136.465 5.26562C136.335 5.26562 136.204 5.29167 136.074 5.34375C135.462 5.60417 135.111 6.27474 135.02 7.35547V7.49219V12.4922H135.352C135.43 12.4922 135.508 12.4987 135.586 12.5117C135.755 12.5378 135.84 12.7005 135.84 13H131.699V12.4922C131.908 12.4922 132.07 12.4727 132.188 12.4336C132.435 12.3294 132.559 12.0104 132.559 11.4766V7.16016C132.559 6.80859 132.513 6.48958 132.422 6.20312C132.214 5.60417 131.868 5.30469 131.387 5.30469C131.217 5.30469 131.048 5.35026 130.879 5.44141C130.28 5.75391 129.941 6.42448 129.863 7.45312L129.844 12.4922H130.195Z" fill="black"/>
</svg>
